<?xml version="1.0" encoding="UTF-8"?>
<svg xmlns="http://www.w3.org/2000/svg" xmlns:xlink="http://www.w3.org/1999/xlink" width="500px" height="129px" viewBox="0 0 500 129" version="1.1">
<g id="surface1">
<path style=" stroke:none;fill-rule:evenodd;fill:rgb(20.784314%,11.372549%,41.960784%);fill-opacity:1;" d="M 239.75 33.222656 C 203.835938 36.558594 201.253906 88.425781 236.65625 95.339844 C 245.730469 97.113281 260.980469 93.019531 262.238281 88.472656 C 262.589844 87.210938 262.585938 67.324219 262.234375 66.0625 C 261.738281 64.269531 261.679688 64.257812 252.386719 64.171875 C 241.59375 64.066406 240.5 64.292969 240.5 66.621094 C 240.5 69.128906 240.855469 69.238281 249.5 69.382812 L 256.875 69.507812 L 256.875 86.792969 L 254.75 87.847656 C 238.914062 95.703125 220.339844 86.667969 217.367188 69.664062 C 213.476562 47.40625 234.390625 31.601562 255.015625 41.21875 C 257.835938 42.53125 258.460938 42.585938 259.558594 41.601562 C 263.910156 37.703125 250.871094 32.191406 239.75 33.222656 M 71.691406 34.796875 L 70.875 35.527344 L 70.875 93.472656 L 71.691406 94.203125 C 73.09375 95.457031 75.011719 95.101562 75.875 93.429688 C 76.195312 92.8125 76.25 90.730469 76.25 79.542969 L 76.25 66.378906 L 111.5 66.378906 L 111.5 79.542969 C 111.5 90.730469 111.554688 92.8125 111.875 93.429688 C 112.777344 95.179688 114.753906 95.480469 116.148438 94.082031 L 117 93.230469 L 117 64.636719 C 117 31.703125 117.207031 34.066406 114.320312 34.066406 C 111.515625 34.066406 111.5 34.15625 111.5 48.832031 L 111.5 61.367188 L 76.25 61.367188 L 76.25 35.769531 L 75.398438 34.917969 C 74.253906 33.769531 72.886719 33.726562 71.691406 34.796875 M 134.242188 34.785156 L 133.5 35.53125 L 133.5 64.371094 C 133.5 83.675781 133.585938 93.371094 133.757812 93.695312 C 134.4375 94.964844 136.773438 95.320312 137.921875 94.328125 L 138.625 93.726562 L 138.875 69.007812 L 149.625 69.007812 C 162.730469 69.007812 164.234375 69.289062 166.929688 72.214844 C 169.027344 74.496094 169.402344 75.78125 169.726562 81.785156 C 170.078125 88.316406 171.070312 91.152344 173.859375 93.617188 C 177.335938 96.679688 181.09375 93.402344 177.730469 90.242188 C 175.648438 88.289062 175.34375 87.253906 175.003906 81.019531 C 174.59375 73.53125 172.714844 69.703125 168.136719 67.019531 L 166.46875 66.042969 L 168.050781 65.207031 C 180.796875 58.46875 179.144531 39.769531 165.375 34.898438 L 163.375 34.191406 L 134.984375 34.042969 L 134.242188 34.785156 M 373.582031 36.9375 C 371.199219 37.972656 371.238281 42.476562 373.636719 43.480469 C 376.574219 44.710938 379 43.230469 379 40.203125 C 379 37.179688 376.492188 35.667969 373.582031 36.9375 M 138.933594 39.226562 C 138.832031 39.328125 138.75 44.96875 138.75 51.765625 L 138.75 64.125 L 149.5625 64.117188 C 163.0625 64.109375 163.621094 63.996094 167.148438 60.496094 C 173.921875 53.777344 171.796875 42.660156 163.179688 39.746094 C 161.582031 39.203125 139.425781 38.730469 138.933594 39.226562 M 289.382812 49.625 C 268.160156 52.722656 264.804688 86.636719 284.976562 94.199219 C 293.957031 97.566406 302.875 95.679688 309.207031 89.070312 C 313.242188 84.863281 309.847656 82.074219 305.625 86.132812 C 294.789062 96.546875 278.148438 89.847656 276.628906 74.457031 L 276.449219 72.640625 L 293.238281 72.640625 C 313.535156 72.640625 312.269531 72.933594 311.914062 68.304688 C 311.003906 56.460938 300.753906 47.964844 289.382812 49.625 M 341.421875 49.613281 C 337.332031 50.175781 333.101562 52.472656 329.917969 55.859375 L 328.042969 57.859375 L 327.960938 54.957031 C 327.859375 51.519531 327.441406 50.847656 325.394531 50.847656 C 322.601562 50.847656 322.714844 49.847656 322.800781 73.601562 L 322.875 93.472656 L 323.691406 94.203125 C 324.859375 95.25 326.027344 95.207031 327.148438 94.082031 L 328 93.230469 L 328 79.691406 C 328 65.042969 328.042969 64.476562 329.339844 61.996094 C 333.871094 53.320312 347.984375 51.613281 352.359375 59.207031 C 354.09375 62.214844 354.09375 62.214844 354.242188 78.738281 L 354.375 93.726562 L 355.078125 94.328125 C 356.429688 95.496094 358.445312 94.976562 359.152344 93.28125 C 359.578125 92.253906 359.65625 67.667969 359.242188 64 C 358.066406 53.5625 351.476562 48.242188 341.421875 49.613281 M 406.449219 49.601562 C 382.597656 53.335938 382.742188 90.550781 406.625 95.460938 C 414.765625 97.132812 428.101562 91.433594 428.101562 86.28125 C 428.101562 83.433594 425.730469 83.371094 422.824219 86.140625 C 412.03125 96.429688 395.097656 89.683594 393.839844 74.59375 L 393.679688 72.640625 L 427.550781 72.640625 L 428.433594 71.753906 L 429.316406 70.871094 L 429.148438 68.785156 C 428.15625 56.507812 417.867188 47.816406 406.449219 49.601562 M 374.820312 49.777344 C 374.515625 49.832031 373.980469 50.21875 373.632812 50.632812 L 373 51.386719 L 373 93.46875 L 373.730469 94.203125 C 374.757812 95.234375 376.242188 95.234375 377.269531 94.203125 L 378 93.46875 L 378 51.359375 L 377.3125 50.625 C 376.605469 49.875 375.796875 49.601562 374.820312 49.777344 M 287.613281 55.199219 C 282.316406 56.917969 278.347656 61.414062 277.136719 67.066406 L 276.960938 67.882812 L 306.773438 67.882812 L 306.617188 66.941406 C 305.15625 58.023438 296.117188 52.4375 287.613281 55.199219 M 405.125 55.074219 C 399.816406 56.605469 394.25 62.992188 394.25 67.550781 C 394.25 67.820312 396.957031 67.882812 409 67.882812 L 423.75 67.882812 L 423.75 67.050781 C 423.75 59.238281 413.511719 52.65625 405.125 55.074219 "/>
<path style=" stroke:none;fill-rule:evenodd;fill:rgb(98.431373%,79.607843%,20.392157%);fill-opacity:1;" d="M 436.25 0.265625 C 434.53125 0.386719 430.425781 0.710938 427.125 0.984375 C 423.457031 1.292969 417.675781 1.542969 412.25 1.628906 C 390.699219 1.976562 375.859375 2.519531 340.375 4.253906 C 292.222656 6.613281 306.992188 6.433594 218.5 5.738281 C 155.105469 5.242188 114.332031 6.191406 77 9.027344 C 62.589844 10.121094 43.085938 12.0625 41.878906 12.523438 C 40.996094 12.859375 36.441406 13.433594 30 14.027344 C 0.160156 16.757812 -5.097656 21.347656 5.289062 35.570312 C 11.5 44.070312 12.488281 45.726562 13.074219 48.609375 L 13.402344 50.222656 L 14.265625 50.179688 C 14.738281 50.152344 15.460938 50.0625 15.875 49.972656 C 16.542969 49.832031 16.730469 49.9375 17.574219 50.957031 C 18.816406 52.453125 19.5 52.777344 22.925781 53.503906 C 25.496094 54.050781 27.25 54.652344 27.25 54.992188 C 27.25 55.058594 26.917969 55.707031 26.511719 56.425781 C 24.226562 60.484375 24.589844 64.449219 27.78125 70.296875 C 29.492188 73.433594 29.628906 73.199219 25.78125 73.761719 C 16.558594 75.113281 13.316406 76.570312 12.382812 79.785156 C 11.828125 81.695312 11.449219 81.882812 8.25 81.839844 C 4.550781 81.792969 3.996094 82.097656 4.175781 84.09375 C 4.300781 85.515625 4.277344 85.578125 2.902344 87.65625 C 1.238281 90.171875 1.167969 93.179688 2.777344 93.179688 C 2.90625 93.179688 2.769531 93.652344 2.476562 94.226562 C 1.71875 95.714844 1.914062 97.242188 3.25 100.320312 C 4.136719 102.351562 4.359375 103.179688 4.445312 104.703125 C 4.5625 106.773438 4.84375 107.28125 6.183594 107.84375 C 7.277344 108.300781 7.226562 108.804688 5.910156 110.605469 C 3.929688 113.3125 3.914062 113.285156 8.375 115.042969 C 18.925781 119.207031 29.949219 121.535156 44.875 122.746094 C 46.664062 122.890625 58.53125 123.113281 71.25 123.234375 C 100.035156 123.515625 105.019531 123.78125 116.753906 125.652344 L 120.882812 126.3125 L 122.378906 125.554688 C 125.410156 124.023438 126.351562 124.054688 125.988281 125.667969 C 125.664062 127.113281 125.851562 127.289062 127.515625 127.097656 C 128.894531 126.945312 129.070312 126.988281 130.847656 127.96875 C 133.90625 129.648438 136.070312 129.273438 136.402344 127.007812 C 136.597656 125.675781 136.847656 125.449219 137.910156 125.644531 C 139.941406 126.019531 140.617188 123.683594 138.636719 123.128906 L 137.648438 122.855469 L 138.359375 122.292969 C 139.980469 121.015625 140.875 121.644531 142.59375 125.277344 C 144.023438 128.292969 147.488281 131.035156 146.589844 128.4375 C 146.113281 127.066406 146.324219 126.125 147.125 126.035156 C 147.539062 125.992188 148.460938 125.511719 149.175781 124.972656 C 151.214844 123.433594 152.550781 124.074219 153.546875 127.0625 C 154.078125 128.652344 154.667969 129.050781 155.71875 128.523438 C 159.066406 126.839844 162.332031 126.710938 168.875 128 C 174.195312 129.050781 177.925781 129.140625 180.46875 128.285156 C 182.605469 127.566406 185.070312 127.589844 189 128.367188 C 193.089844 129.179688 194.722656 129.175781 196.902344 128.355469 C 198.816406 127.632812 199.753906 127.679688 200.671875 128.542969 L 201.246094 129.082031 L 218.808594 128.859375 C 237.128906 128.621094 252.867188 128.589844 266.875 128.757812 C 271.984375 128.820312 277.839844 128.722656 282.25 128.5 C 287.949219 128.214844 300.863281 128.136719 346.75 128.113281 C 407.417969 128.082031 412.527344 128.011719 434.875 126.847656 C 443.230469 126.414062 446.988281 126 468.875 123.105469 C 486.347656 120.789062 485.617188 120.953125 487.996094 118.796875 C 493.757812 113.574219 495.808594 106.542969 496.246094 90.511719 C 496.421875 84.15625 496.636719 80.472656 496.988281 77.902344 C 498.386719 67.648438 498.527344 66.125 498.875 57.605469 C 499.074219 52.710938 499.363281 46.792969 499.519531 44.457031 C 500.460938 30.40625 497.019531 17.117188 491.042969 11.734375 C 481.398438 3.046875 460.125 -1.40625 436.25 0.265625 M 239.75 33.222656 C 203.835938 36.558594 201.253906 88.425781 236.65625 95.339844 C 245.730469 97.113281 260.980469 93.019531 262.238281 88.472656 C 262.589844 87.210938 262.585938 67.324219 262.234375 66.0625 C 261.738281 64.269531 261.679688 64.257812 252.386719 64.171875 C 241.59375 64.066406 240.5 64.292969 240.5 66.621094 C 240.5 69.128906 240.855469 69.238281 249.5 69.382812 L 256.875 69.507812 L 256.875 86.792969 L 254.75 87.847656 C 238.914062 95.703125 220.339844 86.667969 217.367188 69.664062 C 213.476562 47.40625 234.390625 31.601562 255.015625 41.21875 C 257.835938 42.53125 258.460938 42.585938 259.558594 41.601562 C 263.910156 37.703125 250.871094 32.191406 239.75 33.222656 M 71.691406 34.796875 L 70.875 35.527344 L 70.875 93.472656 L 71.691406 94.203125 C 73.09375 95.457031 75.011719 95.101562 75.875 93.429688 C 76.195312 92.8125 76.25 90.730469 76.25 79.542969 L 76.25 66.378906 L 111.5 66.378906 L 111.5 79.542969 C 111.5 90.730469 111.554688 92.8125 111.875 93.429688 C 112.777344 95.179688 114.753906 95.480469 116.148438 94.082031 L 117 93.230469 L 117 64.636719 C 117 31.703125 117.207031 34.066406 114.320312 34.066406 C 111.515625 34.066406 111.5 34.15625 111.5 48.832031 L 111.5 61.367188 L 76.25 61.367188 L 76.25 35.769531 L 75.398438 34.917969 C 74.253906 33.769531 72.886719 33.726562 71.691406 34.796875 M 134.242188 34.785156 L 133.5 35.53125 L 133.5 64.371094 C 133.5 83.675781 133.585938 93.371094 133.757812 93.695312 C 134.4375 94.964844 136.773438 95.320312 137.921875 94.328125 L 138.625 93.726562 L 138.875 69.007812 L 149.625 69.007812 C 162.730469 69.007812 164.234375 69.289062 166.929688 72.214844 C 169.027344 74.496094 169.402344 75.78125 169.726562 81.785156 C 170.078125 88.316406 171.070312 91.152344 173.859375 93.617188 C 177.335938 96.679688 181.09375 93.402344 177.730469 90.242188 C 175.648438 88.289062 175.34375 87.253906 175.003906 81.019531 C 174.59375 73.53125 172.714844 69.703125 168.136719 67.019531 L 166.46875 66.042969 L 168.050781 65.207031 C 180.796875 58.46875 179.144531 39.769531 165.375 34.898438 L 163.375 34.191406 L 134.984375 34.042969 L 134.242188 34.785156 M 373.582031 36.9375 C 371.199219 37.972656 371.238281 42.476562 373.636719 43.480469 C 376.574219 44.710938 379 43.230469 379 40.203125 C 379 37.179688 376.492188 35.667969 373.582031 36.9375 M 138.933594 39.226562 C 138.832031 39.328125 138.75 44.96875 138.75 51.765625 L 138.75 64.125 L 149.5625 64.117188 C 163.0625 64.109375 163.621094 63.996094 167.148438 60.496094 C 173.921875 53.777344 171.796875 42.660156 163.179688 39.746094 C 161.582031 39.203125 139.425781 38.730469 138.933594 39.226562 M 289.382812 49.625 C 268.160156 52.722656 264.804688 86.636719 284.976562 94.199219 C 293.957031 97.566406 302.875 95.679688 309.207031 89.070312 C 313.242188 84.863281 309.847656 82.074219 305.625 86.132812 C 294.789062 96.546875 278.148438 89.847656 276.628906 74.457031 L 276.449219 72.640625 L 293.238281 72.640625 C 313.535156 72.640625 312.269531 72.933594 311.914062 68.304688 C 311.003906 56.460938 300.753906 47.964844 289.382812 49.625 M 341.421875 49.613281 C 337.332031 50.175781 333.101562 52.472656 329.917969 55.859375 L 328.042969 57.859375 L 327.960938 54.957031 C 327.859375 51.519531 327.441406 50.847656 325.394531 50.847656 C 322.601562 50.847656 322.714844 49.847656 322.800781 73.601562 L 322.875 93.472656 L 323.691406 94.203125 C 324.859375 95.25 326.027344 95.207031 327.148438 94.082031 L 328 93.230469 L 328 79.691406 C 328 65.042969 328.042969 64.476562 329.339844 61.996094 C 333.871094 53.320312 347.984375 51.613281 352.359375 59.207031 C 354.09375 62.214844 354.09375 62.214844 354.242188 78.738281 L 354.375 93.726562 L 355.078125 94.328125 C 356.429688 95.496094 358.445312 94.976562 359.152344 93.28125 C 359.578125 92.253906 359.65625 67.667969 359.242188 64 C 358.066406 53.5625 351.476562 48.242188 341.421875 49.613281 M 406.449219 49.601562 C 382.597656 53.335938 382.742188 90.550781 406.625 95.460938 C 414.765625 97.132812 428.101562 91.433594 428.101562 86.28125 C 428.101562 83.433594 425.730469 83.371094 422.824219 86.140625 C 412.03125 96.429688 395.097656 89.683594 393.839844 74.59375 L 393.679688 72.640625 L 427.550781 72.640625 L 428.433594 71.753906 L 429.316406 70.871094 L 429.148438 68.785156 C 428.15625 56.507812 417.867188 47.816406 406.449219 49.601562 M 374.820312 49.777344 C 374.515625 49.832031 373.980469 50.21875 373.632812 50.632812 L 373 51.386719 L 373 93.46875 L 373.730469 94.203125 C 374.757812 95.234375 376.242188 95.234375 377.269531 94.203125 L 378 93.46875 L 378 51.359375 L 377.3125 50.625 C 376.605469 49.875 375.796875 49.601562 374.820312 49.777344 M 287.613281 55.199219 C 282.316406 56.917969 278.347656 61.414062 277.136719 67.066406 L 276.960938 67.882812 L 306.773438 67.882812 L 306.617188 66.941406 C 305.15625 58.023438 296.117188 52.4375 287.613281 55.199219 M 405.125 55.074219 C 399.816406 56.605469 394.25 62.992188 394.25 67.550781 C 394.25 67.820312 396.957031 67.882812 409 67.882812 L 423.75 67.882812 L 423.75 67.050781 C 423.75 59.238281 413.511719 52.65625 405.125 55.074219 "/>
</g>
</svg>
